<?xml version="1.0" encoding="UTF-8"?>
<svg id="Layer_1" xmlns="http://www.w3.org/2000/svg" version="1.1" viewBox="0 0 1584.11 133.55">
  <!-- Generator: Adobe Illustrator 30.1.0, SVG Export Plug-In . SVG Version: 2.1.1 Build 136)  -->
  <defs>
    <style>
      .st0 {
        fill: #fff;
      }
    </style>
  </defs>
  <path class="st0" d="M19.59,16.43v96.63c0,3.48-2.24,5.89-4.3,7.49h26.13c-2.05-1.6-4.3-4.01-4.3-7.49v-40.35h16.11c27.1,0,45.91-10.99,45.91-31.88s-16.73-31.89-45.91-31.89H15.3c2.05,1.59,4.3,3.97,4.3,7.48h0ZM53.24,69.53h-16.11V12.13h16.11c15.95,0,27.59,9.57,27.59,28.7s-9.11,28.69-27.59,28.69h0ZM178.54,122.14c29.35,0,49.13-21.66,49.13-57.39S209.15,7.35,178.54,7.35s-49.1,21.67-49.1,57.4,18.35,57.39,49.1,57.39h0ZM178.54,118.96c-19.13,0-30.75-21.67-30.75-54.2s12.27-54.21,30.75-54.21,30.79,21.67,30.79,54.21-12.27,54.2-30.79,54.2h0ZM263.85,16.43v96.63c0,3.48-2.25,5.89-4.3,7.49h26.13c-2.08-1.6-4.3-4.01-4.3-7.49v-31.27l9.4-13.86,33.48,46.57c1.91,2.86,2.08,4.46,0,6.05h28.53c-2.08-1.6-6.7-3.19-8.75-6.05l-31.91-43.87c-2.22-3.03-5.24-4.94-8.92-4.94h-10.83l34.26-50.54c1.91-2.86,6.38-4.62,8.46-6.21h-11.81c2.08,1.59,2.08,3.35.16,6.21l-42.07,62.02V16.43c0-3.51,2.21-5.89,4.3-7.48h-26.13c2.05,1.59,4.3,3.97,4.3,7.48h0ZM387.39,16.43v96.63c0,3.48-2.2,5.89-4.29,7.49h69.2l1.44-2.71,3.03-6.21c-3.52,1.72-8.79,5.73-14.03,5.73h-37.81v-57.4h25.5c3.52,0,5.93,2.25,7.52,4.3v-11.78c-1.6,2.05-4.01,4.3-7.52,4.3h-25.5V12.13h36.21c5.24,0,10.51,4,14.03,5.72l-3.03-6.21-1.44-2.7h-67.6c2.08,1.59,4.29,3.97,4.29,7.48h0ZM491.35,16.43v96.63c0,3.48-2.25,5.89-4.3,7.49h26.13c-2.05-1.6-4.3-4.01-4.3-7.49v-40.35h18.35l25.51,41.46c1.89,3.02,1.72,4.78-.33,6.38h27.72c-2.06-1.6-6.38-3.35-8.26-6.38l-23.3-37.78c-1.92-3.18-5.28-4.94-8.92-4.94h-1.27c18.98-3.52,30.91-13.9,30.91-30.62,0-20.24-15.94-31.4-44.31-31.89h-37.94c2.05,1.59,4.3,3.97,4.3,7.48h0ZM523.4,69.53h-14.51V12.13h14.51c15.94,0,27.59,9.57,27.59,28.7s-9.11,28.69-27.59,28.69h0ZM703.72,118.96c-16.11,0-23.3-12.27-23.3-21.54,0-5.57.98-12.89,5.6-17.05-12.75.65-23.92,6.05-23.92,17.7,0,16.43,23.76,24.07,41.62,24.07,20.89,0,37-10.83,37-28.21,0-21.05-19.13-30.78-35.72-39.85-12.59-7.19-23.76-13.89-23.76-25.22,0-12.43,6.38-18.32,21.67-18.32,11.97,0,15.94,9.08,15.94,19.92,0,4.01-.94,11.32-5.56,15.49,12.76-.65,23.91-6.05,23.91-16.11,0-18.03-20.56-22.48-34.29-22.48-22.94,0-37.29,11.81-37.29,30.45,0,15.78,16.27,23.92,31.89,32.83,14.96,8.3,29.48,17.38,29.48,29.97s-14.35,18.35-23.27,18.35h0ZM775.3,16.43v96.63c0,3.48-2.24,5.89-4.3,7.49h26.13c-2.05-1.6-4.3-4.01-4.3-7.49v-48.31h46.24v48.31c0,3.48-2.25,5.89-4.3,7.49h26.13c-2.06-1.6-4.3-4.01-4.3-7.49V16.43c0-3.51,2.24-5.89,4.3-7.48h-26.13c2.05,1.59,4.3,3.97,4.3,7.48v45.13h-46.24V16.43c0-3.51,2.25-5.89,4.3-7.48h-26.13c2.05,1.59,4.3,3.97,4.3,7.48h0ZM935.52,122.14c29.35,0,49.13-21.66,49.13-57.39s-18.51-57.4-49.13-57.4-49.1,21.67-49.1,57.4,18.35,57.39,49.1,57.39h0ZM935.52,118.96c-19.13,0-30.75-21.67-30.75-54.2s12.27-54.21,30.75-54.21,30.77,21.67,30.77,54.21-12.26,54.2-30.77,54.2h0ZM1065.64,122.14c29.35,0,49.1-21.66,49.1-57.39s-18.48-57.4-49.1-57.4-49.11,21.67-49.11,57.4,18.32,57.39,49.11,57.39h0ZM1065.64,118.96c-19.13,0-30.79-21.67-30.79-54.2s12.3-54.21,30.79-54.21,30.78,21.67,30.78,54.21-12.3,54.2-30.78,54.2h0ZM1214.85,8.95h-73.35l-1.43,2.7-3.02,6.21c3.51-1.72,8.94-5.72,14.18-5.72h18.19v100.93c0,3.48-2.24,5.89-4.3,7.49h26.13c-2.08-1.6-4.3-4.01-4.3-7.49V12.13h18.32c5.27,0,10.54,4,14.06,5.72l-3.06-6.21-1.43-2.7ZM1292.35,122.14c29.31,0,49.1-21.66,49.1-57.39s-18.48-57.4-49.1-57.4-49.1,21.67-49.1,57.4,18.31,57.39,49.1,57.39h0ZM1292.35,118.96c-19.13,0-30.79-21.67-30.79-54.2s12.27-54.21,30.79-54.21,30.75,21.67,30.75,54.21-12.27,54.2-30.75,54.2h0ZM1421.65,118.96c-19.94,0-26.48-18.35-26.48-33.64V16.43c0-3.51,2.24-5.89,4.32-7.48h-26.15c2.08,1.59,4.3,3.97,4.3,7.48v68.88c0,21.22,14.84,36.83,41.61,36.83h2.41c24.21,0,35.7-15.16,35.7-35.23V16.43c0-3.51,2.24-5.89,4.32-7.48h-11.81c2.09,1.59,4.3,3.97,4.3,7.48v70.48c0,18.81-10.02,32.05-32.5,32.05h0ZM1569.76,8.95h-73.34l-1.43,2.7-3.02,6.21c3.48-1.72,8.91-5.72,14.18-5.72h18.15v100.93c0,3.48-2.22,5.89-4.3,7.49h26.16c-2.08-1.6-4.33-4.01-4.33-7.49V12.13h18.36c5.23,0,10.51,4,14.02,5.72l-3.02-6.21-1.43-2.7ZM1569.76,8.95"/>
</svg>