<?xml version="1.0" encoding="UTF-8"?>
<svg id="Layer_1" xmlns="http://www.w3.org/2000/svg" version="1.1" viewBox="0 0 5184 3456">
  <!-- Generator: Adobe Illustrator 30.1.0, SVG Export Plug-In . SVG Version: 2.1.1 Build 136)  -->
  <defs>
    <style>
      .st0 {
        fill: #fff;
      }
    </style>
  </defs>
  <path class="st0" d="M2248.71,1745.31v42.79c0,1.54-.99,2.61-1.9,3.32h11.57c-.91-.71-1.9-1.77-1.9-3.32v-17.87h7.13c12,0,20.33-4.87,20.33-14.12s-7.41-14.12-20.33-14.12h-16.8c.91.7,1.9,1.76,1.9,3.31h0ZM2263.61,1768.83h-7.13v-25.42h7.13c7.06,0,12.22,4.24,12.22,12.71s-4.04,12.71-12.22,12.71h0ZM2319.1,1792.12c13,0,21.76-9.59,21.76-25.41s-8.2-25.42-21.76-25.42-21.74,9.6-21.74,25.42,8.13,25.41,21.74,25.41h0ZM2319.1,1790.71c-8.47,0-13.62-9.6-13.62-24s5.43-24.01,13.62-24.01,13.63,9.6,13.63,24.01-5.43,24-13.63,24h0ZM2356.88,1745.31v42.79c0,1.54-1,2.61-1.9,3.32h11.57c-.92-.71-1.9-1.77-1.9-3.32v-13.85l4.16-6.14,14.83,20.62c.85,1.27.92,1.97,0,2.68h12.63c-.92-.71-2.96-1.41-3.88-2.68l-14.13-19.43c-.98-1.34-2.32-2.19-3.95-2.19h-4.8l15.17-22.38c.85-1.27,2.82-2.05,3.75-2.75h-5.23c.92.7.92,1.48.07,2.75l-18.63,27.46v-26.9c0-1.55.98-2.61,1.9-3.31h-11.57c.91.7,1.9,1.76,1.9,3.31h0ZM2411.59,1745.31v42.79c0,1.54-.98,2.61-1.9,3.32h30.64l.64-1.2,1.34-2.75c-1.56.76-3.89,2.54-6.21,2.54h-16.74v-25.42h11.29c1.56,0,2.62,1,3.33,1.9v-5.21c-.71.91-1.77,1.9-3.33,1.9h-11.29v-19.77h16.03c2.32,0,4.65,1.77,6.21,2.54l-1.34-2.75-.64-1.2h-29.94c.92.7,1.9,1.76,1.9,3.31h0ZM2457.63,1745.31v42.79c0,1.54-1,2.61-1.9,3.32h11.57c-.91-.71-1.9-1.77-1.9-3.32v-17.87h8.12l11.3,18.36c.84,1.34.76,2.12-.14,2.82h12.28c-.91-.71-2.82-1.48-3.66-2.82l-10.32-16.73c-.85-1.41-2.34-2.19-3.95-2.19h-.56c8.4-1.56,13.69-6.16,13.69-13.56,0-8.96-7.06-13.91-19.62-14.12h-16.8c.91.7,1.9,1.76,1.9,3.31h0ZM2471.82,1768.83h-6.43v-25.42h6.43c7.06,0,12.22,4.24,12.22,12.71s-4.04,12.71-12.22,12.71h0ZM2551.67,1790.71c-7.13,0-10.32-5.43-10.32-9.54,0-2.46.43-5.71,2.48-7.55-5.65.29-10.59,2.68-10.59,7.84,0,7.28,10.52,10.66,18.43,10.66,9.25,0,16.38-4.8,16.38-12.49,0-9.32-8.47-13.63-15.82-17.65-5.57-3.18-10.52-6.15-10.52-11.17,0-5.5,2.82-8.11,9.6-8.11,5.3,0,7.06,4.02,7.06,8.82,0,1.77-.42,5.01-2.46,6.86,5.65-.29,10.59-2.68,10.59-7.13,0-7.98-9.11-9.96-15.19-9.96-10.16,0-16.51,5.23-16.51,13.48,0,6.99,7.2,10.59,14.12,14.54,6.62,3.68,13.05,7.7,13.05,13.27s-6.36,8.12-10.3,8.12h0ZM2583.37,1745.31v42.79c0,1.54-.99,2.61-1.9,3.32h11.57c-.91-.71-1.9-1.77-1.9-3.32v-21.39h20.48v21.39c0,1.54-1,2.61-1.9,3.32h11.57c-.91-.71-1.9-1.77-1.9-3.32v-42.79c0-1.55.99-2.61,1.9-3.31h-11.57c.91.7,1.9,1.76,1.9,3.31v19.98h-20.48v-19.98c0-1.55,1-2.61,1.9-3.31h-11.57c.91.7,1.9,1.76,1.9,3.31h0ZM2654.32,1792.12c13,0,21.76-9.59,21.76-25.41s-8.2-25.42-21.76-25.42-21.74,9.6-21.74,25.42,8.12,25.41,21.74,25.41h0ZM2654.32,1790.71c-8.47,0-13.62-9.6-13.62-24s5.43-24.01,13.62-24.01,13.63,9.6,13.63,24.01-5.43,24-13.63,24h0ZM2711.94,1792.12c13,0,21.74-9.59,21.74-25.41s-8.18-25.42-21.74-25.42-21.75,9.6-21.75,25.42,8.11,25.41,21.75,25.41h0ZM2711.94,1790.71c-8.47,0-13.63-9.6-13.63-24s5.44-24.01,13.63-24.01,13.63,9.6,13.63,24.01-5.45,24-13.63,24h0ZM2778.02,1742h-32.48l-.63,1.2-1.34,2.75c1.55-.76,3.96-2.54,6.28-2.54h8.05v44.7c0,1.54-.99,2.61-1.9,3.32h11.57c-.92-.71-1.9-1.77-1.9-3.32v-44.7h8.11c2.34,0,4.67,1.77,6.23,2.54l-1.35-2.75-.63-1.2ZM2812.34,1792.12c12.98,0,21.74-9.59,21.74-25.41s-8.18-25.42-21.74-25.42-21.74,9.6-21.74,25.42,8.11,25.41,21.74,25.41h0ZM2812.34,1790.71c-8.47,0-13.63-9.6-13.63-24s5.43-24.01,13.63-24.01,13.62,9.6,13.62,24.01-5.43,24-13.62,24h0ZM2869.59,1790.71c-8.83,0-11.73-8.12-11.73-14.9v-30.5c0-1.55.99-2.61,1.91-3.31h-11.58c.92.7,1.9,1.76,1.9,3.31v30.5c0,9.39,6.57,16.31,18.43,16.31h1.07c10.72,0,15.81-6.71,15.81-15.6v-31.21c0-1.55.99-2.61,1.91-3.31h-5.23c.93.7,1.9,1.76,1.9,3.31v31.21c0,8.33-4.44,14.19-14.39,14.19h0ZM2935.18,1742h-32.48l-.63,1.2-1.34,2.75c1.54-.76,3.94-2.54,6.28-2.54h8.04v44.7c0,1.54-.98,2.61-1.9,3.32h11.59c-.92-.71-1.92-1.77-1.92-3.32v-44.7h8.13c2.32,0,4.65,1.77,6.21,2.54l-1.34-2.75-.63-1.2ZM2935.18,1742"/>
</svg>